<svg xmlns="http://www.w3.org/2000/svg" xmlns:xlink="http://www.w3.org/1999/xlink" viewBox="0 0 651.24 199.46"><defs><style>.cls-1{fill:url(#linear-gradient);}.cls-2{fill:url(#linear-gradient-2);}.cls-3{fill:url(#linear-gradient-3);}.cls-4{fill:url(#linear-gradient-4);}.cls-5{fill:url(#linear-gradient-5);}.cls-6{fill:url(#linear-gradient-6);}.cls-7{fill:url(#linear-gradient-7);}.cls-8{fill:url(#linear-gradient-8);}.cls-9{fill:url(#linear-gradient-9);}.cls-10{fill:url(#linear-gradient-10);}.cls-11{fill:url(#linear-gradient-11);}.cls-12{fill:url(#linear-gradient-12);}.cls-13{fill:url(#linear-gradient-13);}.cls-14{fill:url(#linear-gradient-14);}.cls-15{fill:url(#linear-gradient-15);}.cls-16{fill:url(#linear-gradient-16);}.cls-17{fill:url(#linear-gradient-17);}.cls-18{fill:url(#linear-gradient-18);}.cls-19{fill:url(#linear-gradient-19);}.cls-20{fill:url(#linear-gradient-20);}.cls-21{fill:url(#linear-gradient-21);}.cls-22{fill:url(#linear-gradient-22);}.cls-23{fill:url(#linear-gradient-23);}.cls-24{fill:url(#linear-gradient-24);}.cls-25{fill:url(#linear-gradient-25);}.cls-26{fill:url(#linear-gradient-26);}.cls-27{fill:url(#linear-gradient-27);}.cls-28{fill:url(#linear-gradient-28);}.cls-29{fill:url(#linear-gradient-29);}.cls-30{fill:url(#linear-gradient-30);}.cls-31{fill:url(#linear-gradient-31);}.cls-32{fill:url(#linear-gradient-32);}.cls-33{opacity:0.5;}.cls-34,.cls-35{fill:none;stroke-miterlimit:10;stroke-width:0.5px;}.cls-34{stroke:#ed2024;}.cls-35{stroke:#231f20;}</style><linearGradient id="linear-gradient" x1="225" y1="120.74" x2="160.32" y2="120.74" gradientUnits="userSpaceOnUse"><stop offset="0" stop-color="#fff"/><stop offset="1"/></linearGradient><linearGradient id="linear-gradient-2" x1="332.91" y1="121.49" x2="311.57" y2="121.49" xlink:href="#linear-gradient"/><linearGradient id="linear-gradient-3" x1="389.49" y1="121.49" x2="368.15" y2="121.49" xlink:href="#linear-gradient"/><linearGradient id="linear-gradient-4" x1="475.85" y1="121.49" x2="393.81" y2="121.49" xlink:href="#linear-gradient"/><linearGradient id="linear-gradient-5" x1="332.91" y1="150.74" x2="311.57" y2="150.74" xlink:href="#linear-gradient"/><linearGradient id="linear-gradient-6" x1="389.49" y1="150.74" x2="368.15" y2="150.74" xlink:href="#linear-gradient"/><linearGradient id="linear-gradient-7" x1="212.17" y1="152.47" x2="160.36" y2="152.47" xlink:href="#linear-gradient"/><linearGradient id="linear-gradient-8" x1="333.73" y1="152.47" x2="311.57" y2="152.47" xlink:href="#linear-gradient"/><linearGradient id="linear-gradient-9" x1="389.49" y1="152.47" x2="368.15" y2="152.47" xlink:href="#linear-gradient"/><linearGradient id="linear-gradient-10" x1="212.12" y1="184.06" x2="160.36" y2="184.06" xlink:href="#linear-gradient"/><linearGradient id="linear-gradient-11" x1="385.28" y1="184.2" x2="315.77" y2="184.2" xlink:href="#linear-gradient"/><linearGradient id="linear-gradient-12" x1="475.8" y1="184.2" x2="393.81" y2="184.2" xlink:href="#linear-gradient"/><linearGradient id="linear-gradient-13" x1="194.34" y1="121.71" x2="181.99" y2="121.71" xlink:href="#linear-gradient"/><linearGradient id="linear-gradient-14" x1="194.34" y1="167.2" x2="181.99" y2="167.2" xlink:href="#linear-gradient"/><linearGradient id="linear-gradient-15" x1="212.16" y1="136.49" x2="159.83" y2="136.49" xlink:href="#linear-gradient"/><linearGradient id="linear-gradient-16" x1="187.42" y1="141.84" x2="185.09" y2="141.84" xlink:href="#linear-gradient"/><linearGradient id="linear-gradient-17" x1="187.56" y1="131.32" x2="184.94" y2="131.32" xlink:href="#linear-gradient"/><linearGradient id="linear-gradient-18" x1="212.66" y1="168.17" x2="160.36" y2="168.17" xlink:href="#linear-gradient"/><linearGradient id="linear-gradient-19" x1="188.17" y1="173.6" x2="185.73" y2="173.6" xlink:href="#linear-gradient"/><linearGradient id="linear-gradient-20" x1="188.26" y1="163.06" x2="185.64" y2="163.06" xlink:href="#linear-gradient"/><linearGradient id="linear-gradient-21" x1="307.25" y1="151.86" x2="229.32" y2="151.86" xlink:href="#linear-gradient"/><linearGradient id="linear-gradient-22" x1="389.49" y1="158.02" x2="311.57" y2="158.02" xlink:href="#linear-gradient"/><linearGradient id="linear-gradient-23" x1="332.91" y1="155.46" x2="332.01" y2="155.46" xlink:href="#linear-gradient"/><linearGradient id="linear-gradient-24" x1="481.26" y1="152.8" x2="402.33" y2="152.8" xlink:href="#linear-gradient"/><linearGradient id="linear-gradient-25" x1="469.92" y1="131.78" x2="458.75" y2="131.78" xlink:href="#linear-gradient"/><linearGradient id="linear-gradient-26" x1="464.88" y1="173.53" x2="463.79" y2="173.53" xlink:href="#linear-gradient"/><linearGradient id="linear-gradient-27" x1="563.34" y1="152.8" x2="485.58" y2="152.8" xlink:href="#linear-gradient"/><linearGradient id="linear-gradient-28" x1="651.24" y1="152.51" x2="567.67" y2="152.51" xlink:href="#linear-gradient"/><linearGradient id="linear-gradient-29" x1="590.87" y1="41.79" x2="511.92" y2="41.79" xlink:href="#linear-gradient"/><linearGradient id="linear-gradient-30" x1="386.94" y1="41.79" x2="193.4" y2="41.79" xlink:href="#linear-gradient"/><linearGradient id="linear-gradient-31" x1="431.54" y1="41.79" x2="318.4" y2="41.79" xlink:href="#linear-gradient"/><linearGradient id="linear-gradient-32" x1="502.22" y1="41.79" x2="419.95" y2="41.79" xlink:href="#linear-gradient"/></defs><g id="Layer_2" data-name="Layer 2"><g id="Layer_1-2" data-name="Layer 1"><path class="cls-1" d="M225,110.07v21.34H160.32c.05-.25.1-.49.17-.74a.31.31,0,0,1,0-.13,3.48,3.48,0,0,1,.1-.44c.06-.31.15-.62.24-.93s.22-.74.34-1.1c.07-.18.13-.38.2-.56s.2-.54.31-.81.22-.53.33-.79.3-.66.45-1q.49-1,1.08-2a22.29,22.29,0,0,1,1.23-1.87c.22-.3.44-.6.67-.89s.47-.59.71-.87.48-.56.74-.83l.78-.8a25.81,25.81,0,0,1,5.33-4.06c.32-.2.64-.38,1-.55a10.54,10.54,0,0,1,1-.5c.66-.31,1.35-.61,2-.87l1.14-.38.17,0c.3-.1.61-.19.92-.27l.52-.14.52-.12a2.61,2.61,0,0,1,.27-.06c.27-.07.53-.12.8-.17l.59-.1.3,0,.74-.11h.05c.34-.05.67-.07,1-.1s.72,0,1.06-.06l1.09,0Z"/><rect class="cls-2" x="311.57" y="110.82" width="21.34" height="21.34"/><rect class="cls-3" x="368.15" y="110.82" width="21.34" height="21.34"/><path class="cls-4" d="M475.85,132.16h-82V110.82h48.41c1,.08,2,.18,3,.32A42.17,42.17,0,0,1,475.85,132.16Z"/><path class="cls-5" d="M332.91,110.82v79.84a39,39,0,0,1-17.14-17.14,37.89,37.89,0,0,1-3.51-10.37h-.69V110.82Z"/><path class="cls-6" d="M389.49,110.82v52.33h-.69a37.58,37.58,0,0,1-3.52,10.37,38.89,38.89,0,0,1-17.13,17.14V110.82Z"/><path class="cls-7" d="M212.17,163.15H182v-.6a26.4,26.4,0,0,1-21.63-20.75h24.53a.25.25,0,0,1,.17,0h2.38l.08,0,.09,0a25.84,25.84,0,0,1,6.73,1.23,26.4,26.4,0,0,1,13,9.3A25.92,25.92,0,0,1,212.17,163.15Z"/><path class="cls-8" d="M332.91,161.06a15.11,15.11,0,0,0,.82,2.09H311.57V141.8h21.34Z"/><rect class="cls-9" x="368.15" y="141.8" width="21.34" height="21.35"/><path class="cls-10" d="M212.12,173.52a26.47,26.47,0,0,1-17.78,19.8,26.3,26.3,0,0,1-12.35.92,26.47,26.47,0,0,1-21.63-20.72Z"/><path class="cls-11" d="M385.28,173.52a39,39,0,0,1-69.51,0Z"/><path class="cls-12" d="M475.8,173.52c-.06.11-.12.22-.19.33a42.06,42.06,0,0,1-36.43,21H393.81V173.52Z"/><path class="cls-13" d="M194.34,110.07v21.34h-9.4a5.32,5.32,0,0,0-2.95,1.94V110.41l.3,0,.74-.11h.05c.34-.05.67-.07,1-.1s.72,0,1.06-.06l1.09,0Z"/><path class="cls-14" d="M194.34,143v50.29a26.3,26.3,0,0,1-12.35.92V173.52h6.18a5.34,5.34,0,0,0,.09-10.37H182V139.82a5.45,5.45,0,0,0,3.07,2h0c.39,0,.77,0,1.16,0s.78,0,1.17,0h0l.08,0,.09,0A25.84,25.84,0,0,1,194.34,143Z"/><path class="cls-15" d="M194.34,143a25.84,25.84,0,0,0-6.73-1.23l-.09,0-.08,0h0c-.39,0-.78,0-1.17,0s-.77,0-1.16,0h0a5.45,5.45,0,0,1-3.07-2,5.33,5.33,0,0,1,2.95-8.41h27.22a26.38,26.38,0,0,0-17.82-20.07,26.09,26.09,0,0,0-8.09-1.27l-1.09,0c-.34,0-.71,0-1.06.06s-.68,0-1,.1H183l-.74.11-.3,0-.59.1c-.27,0-.53.1-.8.17a2.61,2.61,0,0,0-.27.06l-.52.12-.52.14c-.31.08-.62.17-.92.27l-.17,0-1.14.38c-.69.26-1.38.56-2,.87a10.54,10.54,0,0,0-1,.5c-.34.17-.66.35-1,.55a25.81,25.81,0,0,0-5.33,4.06l-.78.8c-.26.27-.5.54-.74.83s-.48.57-.71.87-.45.59-.67.89a22.29,22.29,0,0,0-1.23,1.87q-.58,1-1.08,2c-.15.33-.31.65-.45,1s-.23.53-.33.79-.21.54-.31.81-.13.38-.2.56c-.12.36-.23.72-.34,1.1s-.18.62-.24.93a3.48,3.48,0,0,0-.1.44.31.31,0,0,0,0,.13c-.07.25-.12.49-.17.74A26.39,26.39,0,0,0,182,162.55a26.3,26.3,0,0,0,12.35-.92,26.4,26.4,0,0,0,13-9.3A26.4,26.4,0,0,0,194.34,143Z"/><path class="cls-16" d="M186.25,141.76c.39,0,.78,0,1.17,0a5.06,5.06,0,0,1-1.17.13,4.91,4.91,0,0,1-1.16-.13C185.48,141.77,185.86,141.76,186.25,141.76Z"/><path class="cls-17" d="M187.56,131.41h-2.62a5.13,5.13,0,0,1,2.62,0Z"/><path class="cls-18" d="M212.17,163.15a25.92,25.92,0,0,0-4.79-10.82,26.4,26.4,0,0,0-13-9.3,25.84,25.84,0,0,0-6.73-1.23l-.09,0-.08,0h0c-.39,0-.78,0-1.17,0s-.77,0-1.16,0h0a.25.25,0,0,0-.17,0,25.21,25.21,0,0,0-2.9.31,26.39,26.39,0,0,0-16.89,10.22A26.4,26.4,0,0,0,182,162.55v.6h6.27a5.34,5.34,0,0,1-.09,10.37H160.36A26.47,26.47,0,0,0,182,194.24a26.3,26.3,0,0,0,12.35-.92,26.47,26.47,0,0,0,17.78-19.8,26.37,26.37,0,0,0,0-10.37Z"/><path class="cls-19" d="M188.17,173.52a5,5,0,0,1-2.44,0Z"/><path class="cls-20" d="M188.26,163.15h-2.62a5.13,5.13,0,0,1,2.62,0Z"/><polygon class="cls-21" points="257.61 110.07 229.32 110.07 229.32 131.42 257.61 131.42 257.61 193.64 278.96 193.64 278.96 131.42 307.25 131.42 307.25 110.07 278.96 110.07 257.61 110.07"/><path class="cls-22" d="M389.49,155.91a39.34,39.34,0,0,1-4.21,17.61,39,39,0,0,1-69.51,0,37.89,37.89,0,0,1-3.51-10.37,37.5,37.5,0,0,1-.69-7.24,38.43,38.43,0,0,1,2.65-14.11,37.38,37.38,0,0,1,5.44-9.64,38.91,38.91,0,0,1,13.25-11v39.9a15.11,15.11,0,0,0,.82,2.09,18.08,18.08,0,0,0,16.36,10.37h18.06V121.16a39,39,0,0,1,13.25,11,37.67,37.67,0,0,1,5.44,9.64A38.43,38.43,0,0,1,389.49,155.91Z"/><path class="cls-23" d="M332,155.46a17.61,17.61,0,0,1,.9-5.6v11.2A17.57,17.57,0,0,1,332,155.46Z"/><path class="cls-24" d="M481.26,152.8a41.58,41.58,0,0,1-5.46,20.72c-.06.11-.12.22-.19.33a42.09,42.09,0,0,1-72.87,0H440a19.46,19.46,0,0,0,3.17-.33,21.07,21.07,0,0,0,1.88-41H402.33c.06-.1.11-.22.18-.32a42.15,42.15,0,0,1,30.64-21c1-.14,2-.24,3-.32s2-.1,3-.1,2,0,3,.1,2,.18,3,.32a42.17,42.17,0,0,1,30.64,21c.06.1.11.22.18.32a41.81,41.81,0,0,1,3.87,9.64A42.76,42.76,0,0,1,481.26,152.8Z"/><path class="cls-25" d="M469.92,132.16H458.75a21.17,21.17,0,0,1,11.17,0Z"/><path class="cls-26" d="M464.88,173.52a5.15,5.15,0,0,1-.55,0,4.87,4.87,0,0,1-.54,0Z"/><polygon class="cls-27" points="513.78 111 485.58 111 485.58 132.35 513.78 132.35 513.78 173.24 485.58 173.24 485.58 194.59 563.34 194.59 563.34 173.24 535.13 173.24 535.13 132.35 563.34 132.35 563.34 111 535.13 111 513.78 111"/><path class="cls-28" d="M609.45,110.72a41.8,41.8,0,1,0,41.79,41.79A41.79,41.79,0,0,0,609.45,110.72Zm0,68.19a26.12,26.12,0,1,1,26.11-26.11A26.11,26.11,0,0,1,609.45,178.91Z"/><polygon class="cls-29" points="569.53 21.35 569.53 31.12 533.27 31.12 533.27 21.35 533.27 0 511.92 0 511.92 21.35 511.92 62.24 511.92 83.57 533.27 83.57 533.27 62.24 533.27 52.45 569.53 52.45 569.53 62.24 569.53 83.57 590.87 83.57 590.87 62.24 590.87 52.45 590.87 31.12 590.87 21.35 590.87 0 569.53 0 569.53 21.35"/><polygon class="cls-30" points="356.13 52.76 334.78 31.42 324.71 21.35 305.27 1.91 303.36 0 303.11 0 276.97 0 275.08 1.89 255.62 21.35 245.56 31.42 224.21 52.76 214.73 62.24 193.4 83.57 223.59 83.57 244.91 62.24 254.4 52.76 275.74 31.42 285.81 21.35 294.52 21.35 304.61 31.42 325.96 52.76 335.44 62.24 356.77 83.57 386.68 83.57 386.94 83.57 365.61 62.24 356.13 52.76"/><path class="cls-31" d="M410.1,62.24l-3.65-3.64-5.83-5.84h.11L395.92,48a26.5,26.5,0,0,0,7.32-7.78,25.78,25.78,0,0,0,3.41-8.76,27.11,27.11,0,0,0,.48-5.05,26.79,26.79,0,0,0-.48-5,19.6,19.6,0,0,0-.66-2.64c-.11-.37-.22-.72-.35-1.07v0A26.39,26.39,0,0,0,380.74,0H318.4l7.37,7.35-.09.11,13.88,13.89h39.69a4.93,4.93,0,0,1,1.49-.22,4.87,4.87,0,0,1,1.48.22,5.26,5.26,0,0,1-1.48,10.29,4.44,4.44,0,0,1-1.32-.19.8.8,0,0,1-.15,0H354.84a25.49,25.49,0,0,0,3,8c.09.17.19.33.3.5L367.24,49,371,52.76l9.48,9.48,21.33,21.33h29.75L410.21,62.24Z"/><path class="cls-32" d="M461.73,26.37a15.64,15.64,0,0,1,11.51,5.05h29a40.74,40.74,0,0,0-4-10.07,41.79,41.79,0,0,0-72.9,0,41.1,41.1,0,0,0-4,10.07,42,42,0,0,0,.16,21.34,40.48,40.48,0,0,0,3.89,9.48,41.78,41.78,0,0,0,72.87,0,40,40,0,0,0,3.88-9.48H473.22a15.68,15.68,0,1,1-11.49-26.39Z"/><g class="cls-33"><path class="cls-34" d="M0,173.52a32.7,32.7,0,0,1,11.61.7c15.63,3.88,16.38,24.72,25.89,25,6.27.18,12.71-8.2,15.24-13.2,2-4,1.45-5.7,3.38-8.25,3.86-5.07,12-6.09,20.81-5.42"/><path class="cls-34" d="M0,169.83a32.72,32.72,0,0,1,11.61.71c15.63,3.88,16.38,24.71,25.89,25,6.27.18,12.71-8.19,15.24-13.2,2-4,1.45-5.7,3.38-8.25C60,169,68.15,168,77,168.65"/><path class="cls-34" d="M0,165.71a32.7,32.7,0,0,1,11.61.7c15.63,3.88,16.38,24.72,25.89,25,6.27.18,12.71-8.2,15.24-13.2,2-4,1.45-5.7,3.38-8.25,3.86-5.07,12-6.09,20.81-5.42"/><path class="cls-34" d="M0,161.13a32.7,32.7,0,0,1,11.61.7c15.63,3.88,16.38,24.72,25.89,25,6.27.18,12.71-8.2,15.24-13.2,2-4,1.45-5.7,3.38-8.25C60,160.3,68.15,159.28,77,160"/><path class="cls-34" d="M0,157.19a32.72,32.72,0,0,1,11.61.71c15.63,3.88,16.38,24.71,25.89,25,6.27.18,12.71-8.19,15.24-13.2,2-4,1.45-5.7,3.38-8.25,3.86-5.07,12-6.08,20.81-5.42"/><path class="cls-34" d="M0,153.81a32.7,32.7,0,0,1,11.61.7c15.63,3.88,16.38,24.72,25.89,25,6.27.18,12.71-8.2,15.24-13.2,2-4,1.45-5.7,3.38-8.25C60,153,68.15,152,77,152.63"/><path class="cls-34" d="M0,150.23a32.7,32.7,0,0,1,11.61.7c15.63,3.88,16.38,24.72,25.89,25,6.27.18,12.71-8.2,15.24-13.2,2-4,1.45-5.7,3.38-8.25,3.86-5.07,12-6.09,20.81-5.42"/><path class="cls-34" d="M0,146.46a32.72,32.72,0,0,1,11.61.71c15.63,3.88,16.38,24.71,25.89,25,6.27.18,12.71-8.19,15.24-13.2,2-4,1.45-5.7,3.38-8.25,3.86-5.07,12-6.08,20.81-5.42"/><path class="cls-34" d="M0,142.78a32.7,32.7,0,0,1,11.61.7c15.63,3.88,16.38,24.72,25.89,25,6.27.18,12.71-8.2,15.24-13.2,2-4,1.45-5.7,3.38-8.25C60,142,68.15,140.93,77,141.6"/><path class="cls-34" d="M0,139.48a33,33,0,0,1,11.61.71c15.63,3.88,16.38,24.72,25.89,25,6.27.17,12.71-8.2,15.24-13.2,2-4,1.45-5.71,3.38-8.25,3.86-5.08,12-6.09,20.81-5.42"/><path class="cls-34" d="M0,136.05a32.7,32.7,0,0,1,11.61.7c15.63,3.88,16.38,24.72,25.89,25,6.27.18,12.71-8.2,15.24-13.2,2-4,1.45-5.7,3.38-8.25,3.86-5.07,12-6.09,20.81-5.42"/><path class="cls-34" d="M0,131.92a32.72,32.72,0,0,1,11.61.71c15.63,3.88,16.38,24.71,25.89,25,6.27.18,12.71-8.19,15.24-13.2,2-4,1.45-5.7,3.38-8.25,3.86-5.07,12-6.08,20.81-5.42"/><path class="cls-34" d="M0,127.34a32.72,32.72,0,0,1,11.61.71c15.63,3.88,16.38,24.71,25.89,25,6.27.18,12.71-8.19,15.24-13.2,2-4,1.45-5.7,3.38-8.25,3.86-5.07,12-6.09,20.81-5.42"/><path class="cls-34" d="M0,123.41a32.7,32.7,0,0,1,11.61.7C27.27,128,28,148.83,37.53,149.1c6.27.18,12.71-8.2,15.24-13.2,2-4,1.45-5.7,3.38-8.25,3.86-5.07,12-6.09,20.81-5.42"/><path class="cls-34" d="M0,120a32.72,32.72,0,0,1,11.61.71c15.63,3.88,16.38,24.71,25.89,25,6.27.18,12.71-8.19,15.24-13.2,2-4,1.45-5.7,3.38-8.25,3.86-5.07,12-6.09,20.81-5.42"/><path class="cls-34" d="M0,116.44a32.72,32.72,0,0,1,11.61.71c15.63,3.88,16.38,24.71,25.89,25,6.27.18,12.71-8.19,15.24-13.2,2-4,1.45-5.7,3.38-8.25,3.86-5.07,12-6.09,20.81-5.42"/><path class="cls-34" d="M0,112.68a32.7,32.7,0,0,1,11.61.7c15.63,3.88,16.38,24.72,25.89,25,6.27.18,12.71-8.2,15.24-13.2,2-4,1.45-5.7,3.38-8.25,3.86-5.07,12-6.09,20.81-5.42"/><path class="cls-34" d="M0,109a32.72,32.72,0,0,1,11.61.71c15.63,3.87,16.38,24.71,25.89,25,6.27.18,12.71-8.19,15.24-13.2,2-4,1.45-5.7,3.38-8.25,3.86-5.07,12-6.09,20.81-5.42"/><path class="cls-34" d="M0,105.7a32.49,32.49,0,0,1,11.61.71c15.63,3.87,16.38,24.71,25.89,25,6.27.18,12.71-8.2,15.24-13.2,2-4,1.45-5.7,3.38-8.25,3.86-5.07,12-6.09,20.81-5.42"/><path class="cls-34" d="M0,102.06a32.72,32.72,0,0,1,11.61.71c15.63,3.88,16.38,24.71,25.89,25,6.27.18,12.71-8.19,15.24-13.2,2-4,1.45-5.7,3.38-8.25,3.86-5.07,12-6.08,20.81-5.42"/><path class="cls-34" d="M0,97.94a32.7,32.7,0,0,1,11.61.7c15.63,3.88,16.38,24.72,25.89,25,6.27.18,12.71-8.2,15.24-13.2,2-4,1.45-5.7,3.38-8.25,3.86-5.07,12-6.09,20.81-5.42"/><path class="cls-34" d="M0,93.36a32.7,32.7,0,0,1,11.61.7c15.63,3.88,16.38,24.72,25.89,25,6.27.18,12.71-8.2,15.24-13.2,2-4,1.45-5.7,3.38-8.25,3.86-5.07,12-6.09,20.81-5.42"/><path class="cls-34" d="M0,89.42a32.72,32.72,0,0,1,11.61.71C27.27,94,28,114.84,37.53,115.11c6.27.18,12.71-8.19,15.24-13.2,2-4,1.45-5.7,3.38-8.25,3.86-5.07,12-6.08,20.81-5.42"/><path class="cls-34" d="M0,86a32.7,32.7,0,0,1,11.61.7c15.63,3.88,16.38,24.72,25.89,25,6.27.18,12.71-8.2,15.24-13.2,2-4,1.45-5.7,3.38-8.25,3.86-5.07,12-6.09,20.81-5.42"/><path class="cls-34" d="M0,82.46a32.7,32.7,0,0,1,11.61.7C27.27,87,28,107.88,37.53,108.15c6.27.18,12.71-8.2,15.24-13.2,2-4,1.45-5.7,3.38-8.25,3.86-5.07,12-6.09,20.81-5.42"/><path class="cls-34" d="M0,78.69a32.72,32.72,0,0,1,11.61.71c15.63,3.88,16.38,24.71,25.89,25,6.27.18,12.71-8.19,15.24-13.2,2-4,1.45-5.7,3.38-8.25,3.86-5.07,12-6.08,20.81-5.42"/><path class="cls-34" d="M0,75a33,33,0,0,1,11.61.71c15.63,3.88,16.38,24.72,25.89,25,6.27.17,12.71-8.2,15.24-13.2,2-4,1.45-5.7,3.38-8.25,3.86-5.07,12-6.09,20.81-5.42"/><path class="cls-34" d="M0,71.71a33,33,0,0,1,11.61.71C27.27,76.3,28,97.14,37.53,97.41c6.27.17,12.71-8.2,15.24-13.2,2-4,1.45-5.71,3.38-8.25,3.86-5.08,12-6.09,20.81-5.43"/><path class="cls-34" d="M0,68.93a32.7,32.7,0,0,1,11.61.7c15.63,3.88,16.38,24.72,25.89,25,6.27.18,12.71-8.2,15.24-13.2,2-4,1.45-5.7,3.38-8.25C60,68.1,68.15,67.08,77,67.75"/><path class="cls-34" d="M0,64.8a33,33,0,0,1,11.61.71C27.27,69.39,28,90.23,37.53,90.5c6.27.17,12.71-8.2,15.24-13.2,2-4,1.45-5.71,3.38-8.25C60,64,68.15,63,77,63.62"/><path class="cls-34" d="M0,60.22a32.72,32.72,0,0,1,11.61.71c15.63,3.88,16.38,24.71,25.89,25,6.27.18,12.71-8.19,15.24-13.2,2-4,1.45-5.7,3.38-8.25C60,59.39,68.15,58.38,77,59"/><path class="cls-34" d="M0,56.29A32.49,32.49,0,0,1,11.64,57C27.27,60.87,28,81.71,37.53,82c6.27.18,12.71-8.2,15.24-13.2,2-4,1.45-5.7,3.38-8.25,3.86-5.07,12-6.09,20.81-5.42"/><path class="cls-34" d="M0,52.9a32.72,32.72,0,0,1,11.61.71c15.63,3.88,16.38,24.71,25.89,25,6.27.18,12.71-8.19,15.24-13.2,2-4,1.45-5.7,3.38-8.24,3.86-5.08,12-6.09,20.81-5.43"/><path class="cls-34" d="M0,49.32A32.72,32.72,0,0,1,11.64,50C27.27,53.91,28,74.74,37.53,75c6.27.18,12.71-8.19,15.24-13.2,2-4,1.45-5.7,3.38-8.25,3.86-5.07,12-6.08,20.81-5.42"/><path class="cls-34" d="M0,45.56a32.7,32.7,0,0,1,11.61.7C27.27,50.14,28,71,37.53,71.25c6.27.18,12.71-8.2,15.24-13.2,2-4,1.45-5.7,3.38-8.25,3.86-5.07,12-6.09,20.81-5.42"/><path class="cls-34" d="M0,41.87a32.72,32.72,0,0,1,11.61.71c15.63,3.88,16.38,24.71,25.89,25,6.27.18,12.71-8.19,15.24-13.2,2-4,1.45-5.7,3.38-8.25C60,41,68.15,40,77,40.69"/><path class="cls-34" d="M0,38.58a32.72,32.72,0,0,1,11.61.71C27.27,43.17,28,64,37.53,64.27c6.27.18,12.71-8.19,15.24-13.2,2-4,1.45-5.7,3.38-8.25C60,37.75,68.15,36.73,77,37.4"/><path class="cls-34" d="M0,35.79a33,33,0,0,1,11.61.71c15.63,3.88,16.38,24.72,25.89,25,6.27.17,12.71-8.2,15.24-13.2,2-4,1.45-5.71,3.38-8.25C60,35,68.15,34,77,34.62"/><path class="cls-34" d="M0,31.67a32.72,32.72,0,0,1,11.61.71c15.63,3.88,16.38,24.71,25.89,25,6.27.18,12.71-8.19,15.24-13.2,2-4,1.45-5.7,3.38-8.25,3.86-5.07,12-6.09,20.81-5.42"/><path class="cls-34" d="M0,27.09a32.49,32.49,0,0,1,11.61.71c15.63,3.87,16.38,24.71,25.89,25,6.27.18,12.71-8.19,15.24-13.2,2-4,1.45-5.7,3.38-8.25,3.86-5.07,12-6.09,20.81-5.42"/><path class="cls-34" d="M0,23.15a33,33,0,0,1,11.61.71c15.63,3.88,16.38,24.72,25.89,25,6.27.17,12.71-8.2,15.24-13.2,2-4,1.45-5.7,3.38-8.25C60,22.33,68.15,21.31,77,22"/><path class="cls-34" d="M0,19.77a32.49,32.49,0,0,1,11.61.71c15.63,3.87,16.38,24.71,25.89,25,6.27.18,12.71-8.19,15.24-13.2,2-4,1.45-5.7,3.38-8.25,3.86-5.07,12-6.09,20.81-5.42"/><path class="cls-34" d="M0,16.19a32.49,32.49,0,0,1,11.61.71c15.63,3.87,16.38,24.71,25.89,25,6.27.18,12.71-8.19,15.24-13.2,2-4,1.45-5.7,3.38-8.25C60,15.36,68.15,14.34,77,15"/><path class="cls-34" d="M0,12.42a33,33,0,0,1,11.61.71C27.27,17,28,37.85,37.53,38.12c6.27.17,12.71-8.2,15.24-13.2,2-4,1.45-5.7,3.38-8.25,3.86-5.08,12-6.09,20.81-5.42"/><path class="cls-34" d="M0,8.74a32.7,32.7,0,0,1,11.61.7c15.63,3.88,16.38,24.72,25.89,25,6.27.18,12.71-8.2,15.24-13.2,2-4,1.45-5.7,3.38-8.25C60,7.91,68.15,6.89,77,7.56"/><path class="cls-34" d="M0,5.45a32.7,32.7,0,0,1,11.61.7C27.27,10,28,30.87,37.53,31.14c6.27.18,12.71-8.2,15.24-13.2,2-4,1.45-5.7,3.38-8.25C60,4.62,68.15,3.6,77,4.27"/></g><path class="cls-35" d="M77,27.57a33,33,0,0,1-11.61-.71C49.72,23,49,2.14,39.46,1.87c-6.27-.17-12.71,8.2-15.24,13.2-2,4-1.45,5.7-3.39,8.25C17,28.39,8.83,29.41,0,28.74"/><path class="cls-35" d="M77,31.25a32.49,32.49,0,0,1-11.61-.71C49.72,26.67,49,5.83,39.46,5.56c-6.27-.18-12.71,8.2-15.24,13.2-2,4-1.45,5.7-3.39,8.25C17,32.08,8.83,33.1,0,32.43"/><path class="cls-35" d="M77,35.38a33,33,0,0,1-11.61-.71C49.72,30.79,49,10,39.46,9.68c-6.27-.17-12.71,8.2-15.24,13.2-2,4-1.45,5.71-3.39,8.25C17,36.21,8.83,37.22,0,36.55"/><path class="cls-35" d="M77,40a32.72,32.72,0,0,1-11.61-.71C49.72,35.37,49,14.54,39.46,14.26c-6.27-.17-12.71,8.2-15.24,13.2-2,4-1.45,5.71-3.39,8.25C17,40.79,8.83,41.8,0,41.14"/><path class="cls-35" d="M77,43.89a32.49,32.49,0,0,1-11.61-.71C49.72,39.31,49,18.47,39.46,18.2,33.19,18,26.75,26.39,24.22,31.4c-2,4-1.45,5.7-3.39,8.25C17,44.72,8.83,45.74,0,45.07"/><path class="cls-35" d="M77,47.28a32.72,32.72,0,0,1-11.61-.71C49.72,42.69,49,21.86,39.46,21.58c-6.27-.17-12.71,8.2-15.24,13.2-2,4-1.45,5.71-3.39,8.25C17,48.11,8.83,49.12,0,48.46"/><path class="cls-35" d="M77,50.86a32.72,32.72,0,0,1-11.61-.71C49.72,46.27,49,25.44,39.46,25.17,33.19,25,26.75,33.36,24.22,38.36c-2,4-1.45,5.71-3.39,8.25C17,51.69,8.83,52.7,0,52"/><path class="cls-35" d="M77,54.62a32.49,32.49,0,0,1-11.61-.71C49.72,50,49,29.2,39.46,28.93c-6.27-.18-12.71,8.2-15.24,13.2-2,4-1.45,5.7-3.39,8.25C17,55.45,8.83,56.47,0,55.8"/><path class="cls-35" d="M77,58.31a32.72,32.72,0,0,1-11.61-.71C49.72,53.72,49,32.89,39.46,32.62c-6.27-.18-12.71,8.19-15.24,13.2-2,4-1.45,5.7-3.39,8.25C17,59.14,8.83,60.15,0,59.49"/><path class="cls-35" d="M77,61.6a32.72,32.72,0,0,1-11.61-.71C49.72,57,49,36.18,39.46,35.91c-6.27-.18-12.71,8.19-15.24,13.2-2,4-1.45,5.7-3.39,8.25C17,62.43,8.83,63.45,0,62.78"/><path class="cls-35" d="M77,65a32.72,32.72,0,0,1-11.61-.71C49.72,60.45,49,39.62,39.46,39.35c-6.27-.18-12.71,8.19-15.24,13.2-2,4-1.45,5.7-3.39,8.24C17,65.87,8.83,66.88,0,66.22"/><path class="cls-35" d="M77,69.16a32.49,32.49,0,0,1-11.61-.71C49.72,64.58,49,43.74,39.46,43.47c-6.27-.18-12.71,8.2-15.24,13.2-2,4-1.45,5.7-3.39,8.25C17,70,8.83,71,0,70.34"/><path class="cls-35" d="M77,73.74A32.7,32.7,0,0,1,65.35,73C49.72,69.16,49,48.32,39.46,48.05c-6.27-.18-12.71,8.2-15.24,13.2-2,4-1.45,5.7-3.39,8.25C17,74.57,8.83,75.59,0,74.92"/><path class="cls-35" d="M77,77.68A32.72,32.72,0,0,1,65.35,77C49.72,73.09,49,52.26,39.46,52c-6.27-.17-12.71,8.2-15.24,13.2-2,4-1.45,5.71-3.39,8.25C17,78.51,8.83,79.52,0,78.86"/><path class="cls-35" d="M77,81.06a32.7,32.7,0,0,1-11.61-.7C49.72,76.48,49,55.64,39.46,55.37c-6.27-.18-12.71,8.2-15.24,13.2-2,4-1.45,5.7-3.39,8.25C17,81.89,8.83,82.91,0,82.24"/><path class="cls-35" d="M77,84.64a32.7,32.7,0,0,1-11.61-.7C49.72,80.06,49,59.22,39.46,59c-6.27-.18-12.71,8.2-15.24,13.2-2,4-1.45,5.7-3.39,8.25C17,85.47,8.83,86.49,0,85.82"/><path class="cls-35" d="M77,88.41a32.72,32.72,0,0,1-11.61-.71C49.72,83.82,49,63,39.46,62.72c-6.27-.18-12.71,8.19-15.24,13.19-2,4-1.45,5.71-3.39,8.25C17,89.24,8.83,90.25,0,89.59"/><path class="cls-35" d="M77,92.09a32.7,32.7,0,0,1-11.61-.7C49.72,87.51,49,66.67,39.46,66.4c-6.27-.18-12.71,8.2-15.24,13.2-2,4-1.45,5.7-3.39,8.25C17,92.92,8.83,93.94,0,93.27"/><path class="cls-35" d="M77,95.39a33,33,0,0,1-11.61-.71C49.72,90.8,49,70,39.46,69.69c-6.27-.18-12.71,8.2-15.24,13.2-2,4-1.45,5.7-3.39,8.25C17,96.21,8.83,97.23,0,96.56"/><path class="cls-35" d="M77,99a32.7,32.7,0,0,1-11.61-.7C49.72,94.44,49,73.6,39.46,73.33c-6.27-.18-12.71,8.2-15.24,13.2-2,4-1.45,5.7-3.39,8.25C17,99.85,8.83,100.87,0,100.2"/><path class="cls-35" d="M77,103.15a33,33,0,0,1-11.61-.71C49.72,98.56,49,77.72,39.46,77.45c-6.27-.17-12.71,8.2-15.24,13.2-2,4-1.45,5.71-3.39,8.25C17,104,8.83,105,0,104.32"/><path class="cls-35" d="M77,107.73A32.72,32.72,0,0,1,65.35,107C49.72,103.14,49,82.31,39.46,82c-6.27-.18-12.71,8.19-15.24,13.2-2,4-1.45,5.7-3.39,8.24-3.85,5.08-12,6.09-20.8,5.43"/><path class="cls-35" d="M77,111.66A32.49,32.49,0,0,1,65.35,111C49.72,107.08,49,86.24,39.46,86c-6.27-.18-12.71,8.2-15.24,13.2-2,4-1.45,5.7-3.39,8.25-3.85,5.07-12,6.09-20.8,5.42"/><path class="cls-35" d="M77,115.05a32.72,32.72,0,0,1-11.61-.71c-15.63-3.88-16.38-24.71-25.89-25-6.27-.18-12.71,8.19-15.24,13.19-2,4-1.45,5.71-3.39,8.25-3.85,5.08-12,6.09-20.8,5.43"/><path class="cls-35" d="M77,118.63a32.72,32.72,0,0,1-11.61-.71C49.72,114,49,93.21,39.46,92.94c-6.27-.18-12.71,8.19-15.24,13.2-2,4-1.45,5.7-3.39,8.24-3.85,5.08-12,6.09-20.8,5.43"/><path class="cls-35" d="M77,122.39a32.7,32.7,0,0,1-11.61-.7C49.72,117.81,49,97,39.46,96.7c-6.27-.18-12.71,8.2-15.24,13.2-2,4-1.45,5.7-3.39,8.25-3.85,5.07-12,6.09-20.8,5.42"/><path class="cls-35" d="M77,126.08a32.72,32.72,0,0,1-11.61-.71c-15.63-3.88-16.38-24.71-25.89-25-6.27-.18-12.71,8.19-15.24,13.2-2,4-1.45,5.7-3.39,8.25-3.85,5.07-12,6.08-20.8,5.42"/><path class="cls-35" d="M77,129.37a32.72,32.72,0,0,1-11.61-.71C49.72,124.78,49,104,39.46,103.68c-6.27-.18-12.71,8.19-15.24,13.2-2,4-1.45,5.7-3.39,8.25-3.85,5.07-12,6.09-20.8,5.42"/><path class="cls-35" d="M77,132.16a33,33,0,0,1-11.61-.71c-15.63-3.88-16.38-24.72-25.89-25-6.27-.17-12.71,8.2-15.24,13.2-2,4-1.45,5.7-3.39,8.25C17,133,8.83,134,0,133.33"/><path class="cls-35" d="M77,136.28a32.72,32.72,0,0,1-11.61-.71c-15.63-3.88-16.38-24.71-25.89-25-6.27-.18-12.71,8.19-15.24,13.2-2,4-1.45,5.7-3.39,8.25-3.85,5.07-12,6.09-20.8,5.42"/><path class="cls-35" d="M77,140.86a32.72,32.72,0,0,1-11.61-.71c-15.63-3.87-16.38-24.71-25.89-25-6.27-.18-12.71,8.19-15.24,13.2-2,4-1.45,5.7-3.39,8.25C17,141.69,8.83,142.71,0,142"/><path class="cls-35" d="M77,144.8a33,33,0,0,1-11.61-.71c-15.63-3.88-16.38-24.72-25.89-25-6.27-.18-12.71,8.2-15.24,13.2-2,4-1.45,5.7-3.39,8.25C17,145.62,8.83,146.64,0,146"/><path class="cls-35" d="M77,148.18a32.72,32.72,0,0,1-11.61-.71c-15.63-3.87-16.38-24.71-25.89-25-6.27-.18-12.71,8.19-15.24,13.2-2,4-1.45,5.7-3.39,8.25C17,149,8.83,150,0,149.36"/><path class="cls-35" d="M77,151.76a32.72,32.72,0,0,1-11.61-.71c-15.63-3.87-16.38-24.71-25.89-25-6.27-.18-12.71,8.19-15.24,13.2-2,4-1.45,5.7-3.39,8.25-3.85,5.07-12,6.09-20.8,5.42"/><path class="cls-35" d="M77,155.53a33,33,0,0,1-11.61-.71c-15.63-3.88-16.38-24.72-25.89-25-6.27-.17-12.71,8.2-15.24,13.2-2,4-1.45,5.7-3.39,8.25-3.85,5.07-12,6.09-20.8,5.42"/><path class="cls-35" d="M77,159.21a32.49,32.49,0,0,1-11.61-.71c-15.63-3.87-16.38-24.71-25.89-25-6.27-.18-12.71,8.2-15.24,13.2-2,4-1.45,5.7-3.39,8.25C17,160,8.83,161.06,0,160.39"/><path class="cls-35" d="M77,162.5a32.7,32.7,0,0,1-11.61-.7c-15.63-3.88-16.38-24.72-25.89-25-6.27-.18-12.71,8.2-15.24,13.2-2,4-1.45,5.7-3.39,8.25-3.85,5.07-12,6.09-20.8,5.42"/><path class="cls-35" d="M77,165.29a32.72,32.72,0,0,1-11.61-.71c-15.63-3.88-16.38-24.71-25.89-25-6.27-.18-12.71,8.19-15.24,13.2-2,4-1.45,5.7-3.39,8.25-3.85,5.07-12,6.08-20.8,5.42"/><path class="cls-35" d="M77,169.41a32.7,32.7,0,0,1-11.61-.7C49.72,164.83,49,144,39.46,143.72c-6.27-.18-12.71,8.2-15.24,13.2-2,4-1.45,5.7-3.39,8.25-3.85,5.07-12,6.09-20.8,5.42"/><path class="cls-35" d="M77,174a32.7,32.7,0,0,1-11.61-.7c-15.63-3.88-16.38-24.72-25.89-25-6.27-.18-12.71,8.2-15.24,13.2-2,4-1.45,5.7-3.39,8.25-3.85,5.07-12,6.09-20.8,5.42"/><path class="cls-35" d="M77,177.93a32.72,32.72,0,0,1-11.61-.71c-15.63-3.88-16.38-24.71-25.89-25-6.27-.18-12.71,8.19-15.24,13.2-2,4-1.45,5.7-3.39,8.25-3.85,5.07-12,6.08-20.8,5.42"/><path class="cls-35" d="M77,181.31a32.7,32.7,0,0,1-11.61-.7c-15.63-3.88-16.38-24.72-25.89-25-6.27-.18-12.71,8.2-15.24,13.2-2,4-1.45,5.7-3.39,8.25-3.85,5.07-12,6.09-20.8,5.42"/><path class="cls-35" d="M77,184.89a32.7,32.7,0,0,1-11.61-.7c-15.63-3.88-16.38-24.72-25.89-25-6.27-.18-12.71,8.2-15.24,13.2-2,4-1.45,5.7-3.39,8.25-3.85,5.07-12,6.09-20.8,5.42"/><path class="cls-35" d="M77,188.66A32.72,32.72,0,0,1,65.35,188C49.72,184.07,49,163.24,39.46,163c-6.27-.18-12.71,8.19-15.24,13.2-2,4-1.45,5.7-3.39,8.25-3.85,5.07-12,6.08-20.8,5.42"/><path class="cls-35" d="M77,192.35a33,33,0,0,1-11.61-.71c-15.63-3.88-16.38-24.72-25.89-25-6.27-.17-12.71,8.2-15.24,13.2-2,4-1.45,5.7-3.39,8.25-3.85,5.07-12,6.09-20.8,5.42"/><path class="cls-35" d="M77,195.64a33,33,0,0,1-11.61-.71c-15.63-3.88-16.38-24.72-25.89-25-6.27-.17-12.71,8.2-15.24,13.2-2,4-1.45,5.71-3.39,8.25-3.85,5.08-12,6.09-20.8,5.43"/><g class="cls-33"><path class="cls-34" d="M77,172.48a33,33,0,0,1,11.61.71c15.63,3.88,16.38,24.72,25.89,25,6.27.17,12.71-8.2,15.24-13.2,2-4,1.45-5.71,3.38-8.25,3.86-5.08,12-6.09,20.81-5.42"/><path class="cls-34" d="M77,168.8a32.7,32.7,0,0,1,11.61.7c15.63,3.88,16.38,24.72,25.89,25,6.27.18,12.71-8.2,15.24-13.2,2-4,1.45-5.7,3.38-8.25,3.86-5.07,12-6.09,20.81-5.42"/><path class="cls-34" d="M77,164.67a33,33,0,0,1,11.61.71c15.63,3.88,16.38,24.72,25.89,25,6.27.17,12.71-8.2,15.24-13.2,2-4,1.45-5.71,3.38-8.25,3.86-5.08,12-6.09,20.81-5.43"/><path class="cls-34" d="M77,160.09a32.72,32.72,0,0,1,11.61.71c15.63,3.88,16.38,24.71,25.89,25,6.27.18,12.71-8.19,15.24-13.2,2-4,1.45-5.7,3.38-8.25,3.86-5.07,12-6.08,20.81-5.42"/><path class="cls-34" d="M77,156.16a32.49,32.49,0,0,1,11.61.71c15.63,3.87,16.38,24.71,25.89,25,6.27.18,12.71-8.2,15.24-13.2,2-4,1.45-5.7,3.38-8.25,3.86-5.07,12-6.09,20.81-5.42"/><path class="cls-34" d="M77,152.77a32.72,32.72,0,0,1,11.61.71c15.63,3.88,16.38,24.71,25.89,25,6.27.18,12.71-8.19,15.24-13.2,2-4,1.45-5.7,3.38-8.25,3.86-5.07,12-6.08,20.81-5.42"/><path class="cls-34" d="M77,149.19a32.72,32.72,0,0,1,11.61.71c15.63,3.88,16.38,24.71,25.89,25,6.27.18,12.71-8.19,15.24-13.2,2-4,1.45-5.7,3.38-8.25,3.86-5.07,12-6.08,20.81-5.42"/><path class="cls-34" d="M77,145.43a32.7,32.7,0,0,1,11.61.7c15.63,3.88,16.38,24.72,25.89,25,6.27.18,12.71-8.2,15.24-13.2,2-4,1.45-5.7,3.38-8.25,3.86-5.07,12-6.09,20.81-5.42"/><path class="cls-34" d="M77,141.74a32.72,32.72,0,0,1,11.61.71c15.63,3.88,16.38,24.71,25.89,25,6.27.18,12.71-8.19,15.24-13.2,2-4,1.45-5.7,3.38-8.25,3.86-5.07,12-6.08,20.81-5.42"/><path class="cls-34" d="M77,138.45a32.72,32.72,0,0,1,11.61.71c15.63,3.88,16.38,24.71,25.89,25,6.27.18,12.71-8.19,15.24-13.2,2-4,1.45-5.7,3.38-8.25,3.86-5.07,12-6.09,20.81-5.42"/><path class="cls-34" d="M77,135a32.72,32.72,0,0,1,11.61.71c15.63,3.88,16.38,24.71,25.89,25,6.27.18,12.71-8.19,15.24-13.2,2-4,1.45-5.7,3.38-8.25,3.86-5.07,12-6.08,20.81-5.42"/><path class="cls-34" d="M77,130.89a32.7,32.7,0,0,1,11.61.7c15.63,3.88,16.38,24.72,25.89,25,6.27.18,12.71-8.2,15.24-13.2,2-4,1.45-5.7,3.38-8.25,3.86-5.07,12-6.09,20.81-5.42"/><path class="cls-34" d="M77,126.31a32.7,32.7,0,0,1,11.61.7c15.63,3.88,16.38,24.72,25.89,25,6.27.18,12.71-8.2,15.24-13.2,2-4,1.45-5.7,3.38-8.25,3.86-5.07,12-6.09,20.81-5.42"/><path class="cls-34" d="M77,122.37a32.72,32.72,0,0,1,11.61.71c15.63,3.88,16.38,24.71,25.89,25,6.27.18,12.71-8.19,15.24-13.2,2-4,1.45-5.7,3.38-8.25,3.86-5.07,12-6.08,20.81-5.42"/><path class="cls-34" d="M77,119a32.7,32.7,0,0,1,11.61.7c15.63,3.88,16.38,24.72,25.89,25,6.27.18,12.71-8.2,15.24-13.2,2-4,1.45-5.7,3.38-8.25,3.86-5.07,12-6.09,20.81-5.42"/><path class="cls-34" d="M77,115.41a32.7,32.7,0,0,1,11.61.7c15.63,3.88,16.38,24.72,25.89,25,6.27.18,12.71-8.2,15.24-13.2,2-4,1.45-5.7,3.38-8.25,3.86-5.07,12-6.09,20.81-5.42"/><path class="cls-34" d="M77,111.64a32.72,32.72,0,0,1,11.61.71c15.63,3.88,16.38,24.71,25.89,25,6.27.18,12.71-8.19,15.24-13.2,2-4,1.45-5.7,3.38-8.25,3.86-5.07,12-6.08,20.81-5.42"/><path class="cls-34" d="M77,108a32.7,32.7,0,0,1,11.61.7c15.63,3.88,16.38,24.72,25.89,25,6.27.18,12.71-8.2,15.24-13.2,2-4,1.45-5.7,3.38-8.25,3.86-5.07,12-6.09,20.81-5.42"/><path class="cls-34" d="M77,104.66a33,33,0,0,1,11.61.71c15.63,3.88,16.38,24.72,25.89,25,6.27.17,12.71-8.2,15.24-13.2,2-4,1.45-5.71,3.38-8.25,3.86-5.08,12-6.09,20.81-5.42"/><path class="cls-34" d="M77,101a32.7,32.7,0,0,1,11.61.7c15.63,3.88,16.38,24.72,25.89,25,6.27.18,12.71-8.2,15.24-13.2,2-4,1.45-5.7,3.38-8.25,3.86-5.07,12-6.09,20.81-5.42"/><path class="cls-34" d="M77,96.9a32.72,32.72,0,0,1,11.61.71c15.63,3.88,16.38,24.71,25.89,25,6.27.18,12.71-8.19,15.24-13.19,2-4,1.45-5.71,3.38-8.25,3.86-5.08,12-6.09,20.81-5.43"/><path class="cls-34" d="M77,92.32A32.72,32.72,0,0,1,88.58,93c15.63,3.88,16.38,24.71,25.89,25,6.27.18,12.71-8.19,15.24-13.2,2-4,1.45-5.7,3.38-8.25,3.86-5.07,12-6.08,20.81-5.42"/><path class="cls-34" d="M77,88.39a32.7,32.7,0,0,1,11.61.7c15.63,3.88,16.38,24.72,25.89,25,6.27.18,12.71-8.2,15.24-13.2,2-4,1.45-5.7,3.38-8.25,3.86-5.07,12-6.09,20.81-5.42"/><path class="cls-34" d="M77,85a32.72,32.72,0,0,1,11.61.71c15.63,3.88,16.38,24.71,25.89,25,6.27.18,12.71-8.19,15.24-13.2,2-4,1.45-5.7,3.38-8.25,3.86-5.07,12-6.08,20.81-5.42"/><path class="cls-34" d="M77,81.42a32.72,32.72,0,0,1,11.61.71c15.63,3.88,16.38,24.71,25.89,25,6.27.18,12.71-8.19,15.24-13.2,2-4,1.45-5.7,3.38-8.25,3.86-5.07,12-6.08,20.81-5.42"/><path class="cls-34" d="M77,77.66a32.7,32.7,0,0,1,11.61.7c15.63,3.88,16.38,24.72,25.89,25,6.27.18,12.71-8.2,15.24-13.2,2-4,1.45-5.7,3.38-8.25,3.86-5.07,12-6.09,20.81-5.42"/><path class="cls-34" d="M77,74a32.72,32.72,0,0,1,11.61.71c15.63,3.88,16.38,24.71,25.89,25,6.27.18,12.71-8.19,15.24-13.2,2-4,1.45-5.7,3.38-8.25,3.86-5.07,12-6.09,20.81-5.42"/><path class="cls-34" d="M77,70.68a32.72,32.72,0,0,1,11.61.71c15.63,3.87,16.38,24.71,25.89,25,6.27.18,12.71-8.19,15.24-13.2,2-4,1.45-5.7,3.38-8.25,3.86-5.07,12-6.09,20.81-5.42"/><path class="cls-34" d="M77,67.89a33,33,0,0,1,11.61.71c15.63,3.88,16.38,24.72,25.89,25,6.27.17,12.71-8.2,15.24-13.2,2-4,1.45-5.71,3.38-8.25,3.86-5.08,12-6.09,20.81-5.43"/><path class="cls-34" d="M77,63.77a32.72,32.72,0,0,1,11.61.71c15.63,3.87,16.38,24.71,25.89,25,6.27.18,12.71-8.19,15.24-13.2,2-4,1.45-5.7,3.38-8.25,3.86-5.07,12-6.09,20.81-5.42"/><path class="cls-34" d="M77,59.19a32.49,32.49,0,0,1,11.61.71c15.63,3.87,16.38,24.71,25.89,25,6.27.18,12.71-8.2,15.24-13.2,2-4,1.45-5.7,3.38-8.25,3.86-5.07,12-6.09,20.81-5.42"/><path class="cls-34" d="M77,55.25A33,33,0,0,1,88.58,56c15.63,3.88,16.38,24.72,25.89,25,6.27.17,12.71-8.2,15.24-13.2,2-4,1.45-5.71,3.38-8.25,3.86-5.08,12-6.09,20.81-5.42"/><path class="cls-34" d="M77,51.87a32.49,32.49,0,0,1,11.61.71c15.63,3.87,16.38,24.71,25.89,25,6.27.18,12.71-8.2,15.24-13.2,2-4,1.45-5.7,3.38-8.25C137,51,145.1,50,153.9,50.69"/><path class="cls-34" d="M77,48.29A32.49,32.49,0,0,1,88.58,49c15.63,3.87,16.38,24.71,25.89,25,6.27.18,12.71-8.2,15.24-13.2,2-4,1.45-5.7,3.38-8.25,3.86-5.07,12-6.09,20.81-5.42"/><path class="cls-34" d="M77,44.52a33,33,0,0,1,11.61.71c15.63,3.88,16.38,24.72,25.89,25,6.27.17,12.71-8.2,15.24-13.2,2-4,1.45-5.71,3.38-8.25,3.86-5.08,12-6.09,20.81-5.42"/><path class="cls-34" d="M77,40.84a32.7,32.7,0,0,1,11.61.7c15.63,3.88,16.38,24.72,25.89,25,6.27.18,12.71-8.2,15.24-13.2,2-4,1.45-5.7,3.38-8.25C137,40,145.1,39,153.9,39.66"/><path class="cls-34" d="M77,37.55a32.7,32.7,0,0,1,11.61.7c15.63,3.88,16.38,24.72,25.89,25,6.27.18,12.71-8.2,15.24-13.2,2-4,1.45-5.7,3.38-8.25,3.86-5.07,12-6.09,20.81-5.42"/><path class="cls-34" d="M77,34.76a32.72,32.72,0,0,1,11.61.71c15.63,3.88,16.38,24.71,25.89,25,6.27.18,12.71-8.19,15.24-13.2,2-4,1.45-5.7,3.38-8.25,3.86-5.07,12-6.09,20.81-5.42"/><path class="cls-34" d="M77,30.64a32.7,32.7,0,0,1,11.61.7c15.63,3.88,16.38,24.72,25.89,25,6.27.18,12.71-8.2,15.24-13.2,2-4,1.45-5.7,3.38-8.25,3.86-5.07,12-6.09,20.81-5.42"/><path class="cls-34" d="M77,26.05a33,33,0,0,1,11.61.71c15.63,3.88,16.38,24.72,25.89,25,6.27.18,12.71-8.2,15.24-13.2,2-4,1.45-5.7,3.38-8.25,3.86-5.07,12-6.09,20.81-5.42"/><path class="cls-34" d="M77,22.12a32.72,32.72,0,0,1,11.61.71c15.63,3.88,16.38,24.71,25.89,25,6.27.18,12.71-8.19,15.24-13.2,2-4,1.45-5.7,3.38-8.25,3.86-5.07,12-6.09,20.81-5.42"/><path class="cls-34" d="M77,18.73a33,33,0,0,1,11.61.71c15.63,3.88,16.38,24.72,25.89,25,6.27.18,12.71-8.2,15.24-13.2,2-4,1.45-5.7,3.38-8.25,3.86-5.07,12-6.09,20.81-5.42"/><path class="cls-34" d="M77,15.15a33,33,0,0,1,11.61.71c15.63,3.88,16.38,24.72,25.89,25,6.27.18,12.71-8.2,15.24-13.2,2-4,1.45-5.7,3.38-8.25,3.86-5.07,12-6.09,20.81-5.42"/><path class="cls-34" d="M77,11.39a32.72,32.72,0,0,1,11.61.71c15.63,3.88,16.38,24.71,25.89,25,6.27.18,12.71-8.19,15.24-13.2,2-4,1.45-5.7,3.38-8.25,3.86-5.07,12-6.09,20.81-5.42"/><path class="cls-34" d="M77,7.7a33,33,0,0,1,11.61.71c15.63,3.88,16.38,24.72,25.89,25,6.27.17,12.71-8.2,15.24-13.2,2-4,1.45-5.71,3.38-8.25,3.86-5.08,12-6.09,20.81-5.42"/><path class="cls-34" d="M77,4.41a32.72,32.72,0,0,1,11.61.71C104.21,9,105,29.83,114.47,30.1c6.27.18,12.71-8.19,15.24-13.2,2-4,1.45-5.7,3.38-8.24,3.86-5.08,12-6.09,20.81-5.43"/></g><path class="cls-35" d="M153.9,26.53a32.49,32.49,0,0,1-11.61-.71C126.66,22,125.91,1.11,116.4.84,110.13.66,103.69,9,101.16,14c-2,4-1.45,5.7-3.39,8.25-3.85,5.07-12,6.09-20.8,5.42"/><path class="cls-35" d="M153.9,30.22a32.72,32.72,0,0,1-11.61-.71c-15.63-3.88-16.38-24.71-25.89-25-6.27-.18-12.71,8.19-15.24,13.2-2,4-1.45,5.7-3.39,8.25-3.85,5.07-12,6.08-20.8,5.42"/><path class="cls-35" d="M153.9,34.34a32.49,32.49,0,0,1-11.61-.71c-15.63-3.87-16.38-24.71-25.89-25-6.27-.18-12.71,8.2-15.24,13.2-2,4-1.45,5.7-3.39,8.25-3.85,5.07-12,6.09-20.8,5.42"/><path class="cls-35" d="M153.9,38.92a32.7,32.7,0,0,1-11.61-.7c-15.63-3.88-16.38-24.72-25.89-25-6.27-.18-12.71,8.2-15.24,13.2-2,4-1.45,5.7-3.39,8.25-3.85,5.07-12,6.09-20.8,5.42"/><path class="cls-35" d="M153.9,42.86a32.72,32.72,0,0,1-11.61-.71c-15.63-3.88-16.38-24.71-25.89-25-6.27-.18-12.71,8.19-15.24,13.19-2,4-1.45,5.71-3.39,8.25C93.92,43.69,85.77,44.7,77,44"/><path class="cls-35" d="M153.9,46.24a32.7,32.7,0,0,1-11.61-.7c-15.63-3.88-16.38-24.72-25.89-25-6.27-.18-12.71,8.2-15.24,13.2-2,4-1.45,5.7-3.39,8.25-3.85,5.07-12,6.09-20.8,5.42"/><path class="cls-35" d="M153.9,49.82a32.7,32.7,0,0,1-11.61-.7c-15.63-3.88-16.38-24.72-25.89-25-6.27-.18-12.71,8.2-15.24,13.2-2,4-1.45,5.7-3.39,8.25-3.85,5.07-12,6.09-20.8,5.42"/><path class="cls-35" d="M153.9,53.59a32.72,32.72,0,0,1-11.61-.71c-15.63-3.88-16.38-24.71-25.89-25-6.27-.18-12.71,8.19-15.24,13.2-2,4-1.45,5.7-3.39,8.24-3.85,5.08-12,6.09-20.8,5.43"/><path class="cls-35" d="M153.9,57.27a32.7,32.7,0,0,1-11.61-.7c-15.63-3.88-16.38-24.72-25.89-25-6.27-.18-12.71,8.2-15.24,13.2-2,4-1.45,5.7-3.39,8.25-3.85,5.07-12,6.09-20.8,5.42"/><path class="cls-35" d="M153.9,60.57a33,33,0,0,1-11.61-.71c-15.63-3.88-16.38-24.72-25.89-25-6.27-.17-12.71,8.2-15.24,13.2-2,4-1.45,5.7-3.39,8.25-3.85,5.07-12,6.09-20.8,5.42"/><path class="cls-35" d="M153.9,64a32.7,32.7,0,0,1-11.61-.7c-15.63-3.88-16.38-24.72-25.89-25-6.27-.18-12.71,8.2-15.24,13.2-2,4-1.45,5.7-3.39,8.25-3.85,5.07-12,6.09-20.8,5.42"/><path class="cls-35" d="M153.9,68.13a32.72,32.72,0,0,1-11.61-.71c-15.63-3.88-16.38-24.71-25.89-25-6.27-.18-12.71,8.19-15.24,13.2-2,4-1.45,5.7-3.39,8.24C93.92,69,85.77,70,77,69.31"/><path class="cls-35" d="M153.9,72.71A32.72,32.72,0,0,1,142.29,72c-15.63-3.88-16.38-24.71-25.89-25-6.27-.18-12.71,8.19-15.24,13.2-2,4-1.45,5.7-3.39,8.25-3.85,5.07-12,6.08-20.8,5.42"/><path class="cls-35" d="M153.9,76.64a32.7,32.7,0,0,1-11.61-.7c-15.63-3.88-16.38-24.72-25.89-25-6.27-.18-12.71,8.2-15.24,13.2-2,4-1.45,5.7-3.39,8.25-3.85,5.07-12,6.09-20.8,5.42"/><path class="cls-35" d="M153.9,80a32.72,32.72,0,0,1-11.61-.71c-15.63-3.88-16.38-24.71-25.89-25-6.27-.18-12.71,8.19-15.24,13.2-2,4-1.45,5.7-3.39,8.25-3.85,5.07-12,6.08-20.8,5.42"/><path class="cls-35" d="M153.9,83.61a32.72,32.72,0,0,1-11.61-.71c-15.63-3.88-16.38-24.71-25.89-25-6.27-.18-12.71,8.19-15.24,13.2-2,4-1.45,5.7-3.39,8.25-3.85,5.07-12,6.08-20.8,5.42"/><path class="cls-35" d="M153.9,87.37a32.7,32.7,0,0,1-11.61-.7c-15.63-3.88-16.38-24.72-25.89-25-6.27-.18-12.71,8.2-15.24,13.2-2,4-1.45,5.7-3.39,8.25-3.85,5.07-12,6.09-20.8,5.42"/><path class="cls-35" d="M153.9,91.06a32.72,32.72,0,0,1-11.61-.71c-15.63-3.88-16.38-24.71-25.89-25-6.27-.18-12.71,8.19-15.24,13.2-2,4-1.45,5.7-3.39,8.25-3.85,5.07-12,6.09-20.8,5.42"/><path class="cls-35" d="M153.9,94.35a32.49,32.49,0,0,1-11.61-.71c-15.63-3.87-16.38-24.71-25.89-25-6.27-.18-12.71,8.19-15.24,13.2-2,4-1.45,5.7-3.39,8.25-3.85,5.07-12,6.09-20.8,5.42"/><path class="cls-35" d="M153.9,98a32.72,32.72,0,0,1-11.61-.71c-15.63-3.88-16.38-24.71-25.89-25-6.27-.18-12.71,8.19-15.24,13.2-2,4-1.45,5.7-3.39,8.25-3.85,5.07-12,6.08-20.8,5.42"/><path class="cls-35" d="M153.9,102.11a32.7,32.7,0,0,1-11.61-.7c-15.63-3.88-16.38-24.72-25.89-25-6.27-.18-12.71,8.2-15.24,13.2-2,4-1.45,5.7-3.39,8.25-3.85,5.07-12,6.09-20.8,5.42"/><path class="cls-35" d="M153.9,106.69a32.7,32.7,0,0,1-11.61-.7c-15.63-3.88-16.38-24.72-25.89-25-6.27-.18-12.71,8.2-15.24,13.2-2,4-1.45,5.7-3.39,8.25-3.85,5.07-12,6.09-20.8,5.42"/><path class="cls-35" d="M153.9,110.63a32.72,32.72,0,0,1-11.61-.71c-15.63-3.88-16.38-24.71-25.89-25-6.27-.18-12.71,8.19-15.24,13.2-2,4-1.45,5.7-3.39,8.24-3.85,5.08-12,6.09-20.8,5.43"/><path class="cls-35" d="M153.9,114a32.7,32.7,0,0,1-11.61-.7c-15.63-3.88-16.38-24.72-25.89-25-6.27-.18-12.71,8.2-15.24,13.2-2,4-1.45,5.7-3.39,8.25-3.85,5.07-12,6.09-20.8,5.42"/><path class="cls-35" d="M153.9,117.59a32.7,32.7,0,0,1-11.61-.7c-15.63-3.88-16.38-24.72-25.89-25-6.27-.18-12.71,8.2-15.24,13.2-2,4-1.45,5.7-3.39,8.25-3.85,5.07-12,6.09-20.8,5.42"/><path class="cls-35" d="M153.9,121.36a32.72,32.72,0,0,1-11.61-.71c-15.63-3.88-16.38-24.71-25.89-25-6.27-.18-12.71,8.19-15.24,13.2-2,4-1.45,5.7-3.39,8.25-3.85,5.07-12,6.08-20.8,5.42"/><path class="cls-35" d="M153.9,125a32.7,32.7,0,0,1-11.61-.7c-15.63-3.88-16.38-24.72-25.89-25-6.27-.18-12.71,8.2-15.24,13.2-2,4-1.45,5.7-3.39,8.25-3.85,5.07-12,6.09-20.8,5.42"/><path class="cls-35" d="M153.9,128.34a33,33,0,0,1-11.61-.71c-15.63-3.88-16.38-24.72-25.89-25-6.27-.17-12.71,8.2-15.24,13.2-2,4-1.45,5.71-3.39,8.25-3.85,5.08-12,6.09-20.8,5.42"/><path class="cls-35" d="M153.9,131.12a32.49,32.49,0,0,1-11.61-.71c-15.63-3.87-16.38-24.71-25.89-25-6.27-.18-12.71,8.2-15.24,13.2-2,4-1.45,5.7-3.39,8.25C93.92,132,85.77,133,77,132.3"/><path class="cls-35" d="M153.9,135.25a33,33,0,0,1-11.61-.71c-15.63-3.88-16.38-24.72-25.89-25-6.27-.17-12.71,8.2-15.24,13.2-2,4-1.45,5.7-3.39,8.25-3.85,5.07-12,6.09-20.8,5.42"/><path class="cls-35" d="M153.9,139.83a33,33,0,0,1-11.61-.71c-15.63-3.88-16.38-24.71-25.89-25-6.27-.17-12.71,8.2-15.24,13.2-2,4-1.45,5.71-3.39,8.25-3.85,5.08-12,6.09-20.8,5.43"/><path class="cls-35" d="M153.9,143.76a32.49,32.49,0,0,1-11.61-.71c-15.63-3.87-16.38-24.71-25.89-25-6.27-.18-12.71,8.19-15.24,13.2-2,4-1.45,5.7-3.39,8.25-3.85,5.07-12,6.09-20.8,5.42"/><path class="cls-35" d="M153.9,147.15a33,33,0,0,1-11.61-.71c-15.63-3.88-16.38-24.72-25.89-25-6.27-.17-12.71,8.2-15.24,13.2-2,4-1.45,5.71-3.39,8.25-3.85,5.08-12,6.09-20.8,5.43"/><path class="cls-35" d="M153.9,150.73a32.72,32.72,0,0,1-11.61-.71c-15.63-3.88-16.38-24.71-25.89-25-6.27-.17-12.71,8.2-15.24,13.2-2,4-1.45,5.71-3.39,8.25-3.85,5.08-12,6.09-20.8,5.43"/><path class="cls-35" d="M153.9,154.49a32.49,32.49,0,0,1-11.61-.71c-15.63-3.87-16.38-24.71-25.89-25-6.27-.18-12.71,8.2-15.24,13.2-2,4-1.45,5.7-3.39,8.25-3.85,5.07-12,6.09-20.8,5.42"/><path class="cls-35" d="M153.9,158.18a32.72,32.72,0,0,1-11.61-.71c-15.63-3.88-16.38-24.71-25.89-25-6.27-.18-12.71,8.19-15.24,13.2-2,4-1.45,5.7-3.39,8.25-3.85,5.07-12,6.08-20.8,5.42"/><path class="cls-35" d="M153.9,161.47a32.72,32.72,0,0,1-11.61-.71c-15.63-3.88-16.38-24.71-25.89-25-6.27-.18-12.71,8.19-15.24,13.2-2,4-1.45,5.7-3.39,8.25-3.85,5.07-12,6.09-20.8,5.42"/><path class="cls-35" d="M153.9,164.26a33,33,0,0,1-11.61-.71c-15.63-3.88-16.38-24.72-25.89-25-6.27-.18-12.71,8.2-15.24,13.2-2,4-1.45,5.7-3.39,8.25-3.85,5.07-12,6.09-20.8,5.42"/><path class="cls-35" d="M153.9,168.38a32.72,32.72,0,0,1-11.61-.71c-15.63-3.88-16.38-24.71-25.89-25-6.27-.18-12.71,8.19-15.24,13.2-2,4-1.45,5.7-3.39,8.25-3.85,5.07-12,6.08-20.8,5.42"/><path class="cls-35" d="M153.9,173a32.72,32.72,0,0,1-11.61-.71c-15.63-3.88-16.38-24.71-25.89-25-6.27-.18-12.71,8.19-15.24,13.2-2,4-1.45,5.7-3.39,8.25-3.85,5.07-12,6.09-20.8,5.42"/><path class="cls-35" d="M153.9,176.89a32.7,32.7,0,0,1-11.61-.7c-15.63-3.88-16.38-24.72-25.89-25-6.27-.18-12.71,8.2-15.24,13.2-2,4-1.45,5.7-3.39,8.25-3.85,5.07-12,6.09-20.8,5.42"/><path class="cls-35" d="M153.9,180.28a32.72,32.72,0,0,1-11.61-.71c-15.63-3.88-16.38-24.71-25.89-25-6.27-.18-12.71,8.19-15.24,13.2-2,4-1.45,5.7-3.39,8.25-3.85,5.07-12,6.09-20.8,5.42"/><path class="cls-35" d="M153.9,183.86a32.72,32.72,0,0,1-11.61-.71c-15.63-3.88-16.38-24.71-25.89-25-6.27-.18-12.71,8.19-15.24,13.2-2,4-1.45,5.7-3.39,8.25-3.85,5.07-12,6.09-20.8,5.42"/><path class="cls-35" d="M153.9,187.62a32.7,32.7,0,0,1-11.61-.7c-15.63-3.88-16.38-24.72-25.89-25-6.27-.18-12.71,8.2-15.24,13.2-2,4-1.45,5.7-3.39,8.25-3.85,5.07-12,6.09-20.8,5.42"/><path class="cls-35" d="M153.9,191.31a32.49,32.49,0,0,1-11.61-.71c-15.63-3.87-16.38-24.71-25.89-25-6.27-.18-12.71,8.19-15.24,13.2-2,4-1.45,5.7-3.39,8.25-3.85,5.07-12,6.09-20.8,5.42"/><path class="cls-35" d="M153.9,194.6a32.7,32.7,0,0,1-11.61-.7c-15.63-3.88-16.38-24.72-25.89-25-6.27-.18-12.71,8.2-15.24,13.2-2,4-1.45,5.7-3.39,8.25-3.85,5.07-12,6.09-20.8,5.42"/></g></g></svg>