<svg xmlns="http://www.w3.org/2000/svg" viewBox="0 0 681.79 262.57"><defs><style>.cls-1{fill:#231f20;}.cls-2{fill:#fff;}</style></defs><g id="Layer_2" data-name="Layer 2"><g id="Layer_1-2" data-name="Layer 1"><polygon class="cls-1" points="290.69 214.47 290.69 222.03 262.66 222.03 262.66 214.47 262.66 197.97 246.17 197.97 246.17 214.47 246.17 246.08 246.17 262.56 262.66 262.56 262.66 246.08 262.66 238.51 290.69 238.51 290.69 246.08 290.69 262.56 307.18 262.56 307.18 246.08 307.18 238.51 307.18 222.03 307.18 214.47 307.18 197.97 290.69 197.97 290.69 214.47"/><polygon class="cls-1" points="336.27 197.97 314.47 197.97 314.47 214.47 336.27 214.47 336.27 246.07 314.47 246.07 314.47 262.57 374.56 262.57 374.56 246.07 352.76 246.07 352.76 214.47 374.56 214.47 374.56 197.97 352.76 197.97 336.27 197.97"/><polygon class="cls-1" points="404.68 197.97 382.81 197.97 382.81 214.47 404.68 214.47 404.68 262.56 421.17 262.56 421.17 214.47 443.04 214.47 443.04 197.97 421.17 197.97 404.68 197.97"/><polygon class="cls-1" points="600.88 197.97 579.02 197.97 579.02 214.47 600.88 214.47 600.88 262.56 617.38 262.56 617.38 214.47 639.24 214.47 639.24 197.97 617.38 197.97 600.88 197.97"/><polygon class="cls-1" points="125.76 238.75 109.26 222.25 101.48 214.47 86.46 199.45 84.98 197.97 84.79 197.97 64.59 197.97 63.13 199.43 48.09 214.47 40.31 222.25 23.81 238.75 16.48 246.08 0 262.56 23.33 262.56 39.81 246.08 47.14 238.75 63.64 222.25 71.42 214.47 78.15 214.47 85.95 222.25 102.45 238.75 109.77 246.08 126.26 262.56 149.38 262.56 149.57 262.56 133.09 246.08 125.76 238.75"/><path class="cls-1" d="M167.47,246.08l-2.82-2.82-4.5-4.51h.08L156.52,235a20.5,20.5,0,0,0,5.65-6,19.9,19.9,0,0,0,2.64-6.78,20.63,20.63,0,0,0,0-7.78,17.89,17.89,0,0,0-.51-2c-.09-.28-.17-.55-.27-.82v0A20.41,20.41,0,0,0,144.78,198H96.61l5.69,5.69-.07.08L113,214.47h30.67a4.05,4.05,0,0,1,1.15-.17,4,4,0,0,1,1.15.17,4.05,4.05,0,0,1,0,7.78,3.68,3.68,0,0,1-1.15.17,3.49,3.49,0,0,1-1-.14.23.23,0,0,1-.11,0H124.77a19.44,19.44,0,0,0,2.3,6.17l.22.38,7.06,7.06,2.89,2.89,7.33,7.33,16.48,16.48h23l-16.48-16.48Z"/><rect class="cls-1" x="278.47" y="0.87" width="158.18" height="44.44"/><polygon class="cls-1" points="506.44 40.69 632.9 167.15 635.92 167.15 680.36 167.15 680.36 151.76 680.36 0.87 635.92 0.87 635.92 107.32 529.47 0.87 506.44 0.87 466.62 0.87 462 0.87 462 167.15 506.44 167.15 506.44 40.69"/><rect class="cls-1" x="278.47" y="61.79" width="158.18" height="44.44"/><rect class="cls-1" x="278.47" y="122.72" width="158.18" height="44.43"/><path class="cls-1" d="M61.12,44.43h.1a81.83,81.83,0,0,0,12.89,1,81.86,81.86,0,0,0,12.9-1h36.4L106.93,60.92,62.49,105.36,46,121.86,1.57,166.28H253.42a83.18,83.18,0,0,0-61.12-44.42,83.29,83.29,0,0,0-26,0H108.83l16.5-16.5H126l44.44-44.44h-.71l16.48-16.48H187L231.4,0H0A83.2,83.2,0,0,0,61.12,44.43Z"/><path class="cls-1" d="M207.37,218.35a12.1,12.1,0,0,1,8.9,3.9h22.4a32.3,32.3,0,0,0-62.58,0,32.61,32.61,0,0,0-1,8,32.21,32.21,0,0,0,1.13,8.49,31.21,31.21,0,0,0,3,7.33,32.3,32.3,0,0,0,56.32,0,31.21,31.21,0,0,0,3-7.33H216.26a12.12,12.12,0,1,1-8.89-20.4Z"/><path class="cls-1" d="M547.16,218.35a12.12,12.12,0,0,1,8.9,3.9h22.39a31.59,31.59,0,0,0-3.12-7.78,32.3,32.3,0,0,0-59.46,7.78,32.52,32.52,0,0,0,.13,16.5,31.67,31.67,0,0,0,3,7.33,32.29,32.29,0,0,0,56.31,0,31.21,31.21,0,0,0,3-7.33H556a12.12,12.12,0,1,1-8.88-20.4Z"/><rect class="cls-1" x="449.05" y="197.65" width="60.22" height="16.5"/><rect class="cls-1" x="449.05" y="221.7" width="60.22" height="16.48"/><rect class="cls-1" x="449.05" y="245.75" width="60.22" height="16.48"/><path class="cls-1" d="M681.44,238.51A20.25,20.25,0,0,0,661.52,222a5,5,0,0,1-5-5,4.84,4.84,0,0,1,.74-2.59,5,5,0,0,1,8.43,0h15.71a20.27,20.27,0,0,0-39.41-1.8,20.3,20.3,0,0,0,15.55,25.46,4.93,4.93,0,0,1,3.94-2,4.87,4.87,0,0,1,3.93,2,1.89,1.89,0,0,1,.27.38,4.88,4.88,0,0,1,.75,2.61,5,5,0,0,1-5,5h-18.9v3.51a20.27,20.27,0,0,0,38.82-3.51,20.64,20.64,0,0,0,0-7.57Z"/><path class="cls-2" d="M347.08,70.9a5.54,5.54,0,0,1-5.55,5.55H322.44a5.55,5.55,0,0,1-5.55-5.55,5.48,5.48,0,0,1,.46-2.22h29.27A5.48,5.48,0,0,1,347.08,70.9Z"/><rect class="cls-2" x="328.1" y="68.68" width="7.77" height="28.92"/><rect class="cls-2" x="348.37" y="68.61" width="7.77" height="28.92"/><rect class="cls-2" x="362.43" y="68.61" width="7.77" height="28.92"/><rect class="cls-2" x="348.37" y="79.18" width="21.83" height="7.77"/><rect class="cls-2" x="371.85" y="68.61" width="14.26" height="7.77"/><rect class="cls-2" x="371.85" y="79.26" width="14.26" height="7.77"/><rect class="cls-2" x="371.85" y="89.91" width="14.26" height="7.77"/><path class="cls-2" d="M328,70.9a5.55,5.55,0,0,1-11.1,0,5.48,5.48,0,0,1,.46-2.22h10.18A5.48,5.48,0,0,1,328,70.9Z"/><path class="cls-2" d="M347.08,70.9a5.55,5.55,0,0,1-11.1,0,5.48,5.48,0,0,1,.46-2.22h10.18A5.48,5.48,0,0,1,347.08,70.9Z"/><path class="cls-2" d="M317.49,95.24a28.48,28.48,0,0,1,5.95-7.16c2.34-2,3.83-3.31,6.21-3.92s3.15.14,9.05-.13c3.21-.15,4.17-.43,5-1.08,1.86-1.46,2.12-4,2.16-5.14"/></g></g></svg>